<svg width="100" height="100" viewBox="0 0 100 100" fill="none" xmlns="http://www.w3.org/2000/svg">
<g clip-path="url(#clip0_3_65)">
<circle cx="50" cy="50" r="2" fill="black"/>
<circle cx="50" cy="50" r="48" stroke="black" stroke-width="4"/>
<path d="M49.0028 7.18182V13H47.7727V8.34943H47.7386L46.4062 9.18466V8.09375L47.8466 7.18182H49.0028ZM50.3857 13V12.1136L52.4567 10.196C52.6328 10.0256 52.7805 9.87216 52.8999 9.7358C53.0211 9.59943 53.1129 9.46591 53.1754 9.33523C53.2379 9.20265 53.2692 9.05966 53.2692 8.90625C53.2692 8.7358 53.2304 8.58902 53.1527 8.46591C53.075 8.34091 52.969 8.24527 52.8345 8.17898C52.7 8.1108 52.5476 8.0767 52.3771 8.0767C52.1991 8.0767 52.0438 8.11269 51.9112 8.18466C51.7786 8.25663 51.6764 8.35985 51.6044 8.49432C51.5324 8.62879 51.4964 8.78883 51.4964 8.97443H50.3288C50.3288 8.59375 50.415 8.26326 50.5874 7.98295C50.7597 7.70265 51.0012 7.4858 51.3118 7.33239C51.6224 7.17898 51.9804 7.10227 52.3857 7.10227C52.8023 7.10227 53.165 7.17614 53.4737 7.32386C53.7843 7.4697 54.0258 7.67235 54.1982 7.93182C54.3705 8.19129 54.4567 8.48864 54.4567 8.82386C54.4567 9.04356 54.4131 9.26042 54.326 9.47443C54.2408 9.68845 54.0883 9.92614 53.8686 10.1875C53.6489 10.447 53.3393 10.7585 52.9396 11.1222L52.0902 11.9545V11.9943H54.5334V13H50.3857Z" fill="black"/>
<rect x="28.2391" y="9.3249" width="8" height="2" transform="rotate(60 28.2391 9.3249)" fill="black"/>
<rect x="10.7008" y="26" width="8" height="2" transform="rotate(30 10.7008 26)" fill="black"/>
<path d="M9.5767 47.1023C9.87595 47.1023 10.1638 47.1525 10.4403 47.2528C10.7188 47.3532 10.9669 47.5133 11.1847 47.733C11.4044 47.9527 11.5777 48.2443 11.7045 48.608C11.8333 48.9697 11.8987 49.4138 11.9006 49.9403C11.9006 50.4347 11.8447 50.8759 11.733 51.2642C11.6231 51.6506 11.465 51.9792 11.2585 52.25C11.0521 52.5208 10.803 52.7273 10.5114 52.8693C10.2197 53.0095 9.89394 53.0795 9.53409 53.0795C9.14583 53.0795 8.80303 53.0047 8.50568 52.8551C8.20833 52.7036 7.96875 52.4981 7.78693 52.2386C7.60701 51.9773 7.49811 51.6837 7.46023 51.358H8.6733C8.72064 51.5701 8.82008 51.7348 8.97159 51.8523C9.12311 51.9678 9.31061 52.0256 9.53409 52.0256C9.91288 52.0256 10.2008 51.8608 10.3977 51.5312C10.5947 51.1998 10.6941 50.7462 10.696 50.1705H10.6562C10.5691 50.3409 10.4517 50.4877 10.304 50.6108C10.1563 50.732 9.98674 50.8258 9.79545 50.892C9.60606 50.9583 9.40436 50.9915 9.19034 50.9915C8.84754 50.9915 8.54167 50.911 8.27273 50.75C8.00379 50.589 7.79167 50.3674 7.63636 50.0852C7.48106 49.803 7.40341 49.4811 7.40341 49.1193C7.40152 48.7292 7.49148 48.3816 7.6733 48.0767C7.85511 47.7718 8.1089 47.5331 8.43466 47.3608C8.76231 47.1866 9.14299 47.1004 9.5767 47.1023ZM9.58523 48.0682C9.39394 48.0682 9.22348 48.1136 9.07386 48.2045C8.92614 48.2955 8.80871 48.4176 8.72159 48.571C8.63636 48.7244 8.5947 48.8958 8.59659 49.0852C8.59659 49.2765 8.63826 49.4489 8.72159 49.6023C8.80682 49.7538 8.92235 49.875 9.06818 49.9659C9.21591 50.0549 9.38447 50.0994 9.57386 50.0994C9.71591 50.0994 9.84754 50.0729 9.96875 50.0199C10.09 49.9669 10.1951 49.8939 10.2841 49.8011C10.375 49.7064 10.446 49.5975 10.4972 49.4744C10.5483 49.3513 10.5739 49.2206 10.5739 49.0824C10.572 48.8987 10.5284 48.7301 10.4432 48.5767C10.358 48.4233 10.2405 48.3002 10.0909 48.2074C9.94129 48.1146 9.77273 48.0682 9.58523 48.0682Z" fill="black"/>
<rect x="9.59027" y="72.0238" width="8" height="2" transform="rotate(-30 9.59027 72.0238)" fill="black"/>
<rect x="25.6686" y="89.0971" width="8" height="2" transform="rotate(-60 25.6686 89.0971)" fill="black"/>
<path d="M50.7045 93.0795C50.4053 93.0777 50.1165 93.0275 49.8381 92.929C49.5616 92.8305 49.3134 92.6705 49.0938 92.4489C48.8741 92.2273 48.6998 91.9337 48.571 91.5682C48.4441 91.2027 48.3807 90.7538 48.3807 90.2216C48.3826 89.733 48.4384 89.2964 48.5483 88.9119C48.66 88.5256 48.8191 88.1979 49.0256 87.929C49.2339 87.66 49.483 87.4555 49.7727 87.3153C50.0625 87.1733 50.3873 87.1023 50.7472 87.1023C51.1354 87.1023 51.4782 87.178 51.7756 87.3295C52.0729 87.4792 52.3116 87.6828 52.4915 87.9403C52.6733 88.1979 52.7831 88.4867 52.821 88.8068H51.608C51.5606 88.6042 51.4612 88.4451 51.3097 88.3295C51.1581 88.214 50.9706 88.1562 50.7472 88.1562C50.3684 88.1562 50.0805 88.321 49.8835 88.6506C49.6884 88.9801 49.589 89.428 49.5852 89.9943H49.625C49.7121 89.822 49.8295 89.6752 49.9773 89.554C50.1269 89.4309 50.2964 89.3371 50.4858 89.2727C50.6771 89.2064 50.8788 89.1733 51.0909 89.1733C51.4356 89.1733 51.7424 89.2547 52.0114 89.4176C52.2803 89.5786 52.4924 89.8002 52.6477 90.0824C52.803 90.3646 52.8807 90.6875 52.8807 91.0511C52.8807 91.4451 52.7888 91.7955 52.6051 92.1023C52.4233 92.4091 52.1686 92.6496 51.8409 92.8239C51.5152 92.9962 51.1364 93.0814 50.7045 93.0795ZM50.6989 92.1136C50.8883 92.1136 51.0578 92.0682 51.2074 91.9773C51.357 91.8864 51.4744 91.7633 51.5597 91.608C51.6449 91.4527 51.6875 91.2784 51.6875 91.0852C51.6875 90.892 51.6449 90.7187 51.5597 90.5653C51.4763 90.4119 51.3608 90.2898 51.2131 90.1989C51.0653 90.108 50.8968 90.0625 50.7074 90.0625C50.5653 90.0625 50.4337 90.089 50.3125 90.142C50.1932 90.1951 50.0881 90.2689 49.9972 90.3636C49.9081 90.4583 49.8381 90.5682 49.7869 90.6932C49.7358 90.8163 49.7102 90.9479 49.7102 91.0881C49.7102 91.2756 49.7528 91.447 49.8381 91.6023C49.9252 91.7576 50.0426 91.8816 50.1903 91.9744C50.34 92.0672 50.5095 92.1136 50.6989 92.1136Z" fill="black"/>
<rect x="70.3782" y="82.2478" width="8" height="2" transform="rotate(60 70.3782 82.2478)" fill="black"/>
<rect x="83.5734" y="68.0407" width="8" height="2" transform="rotate(30 83.5734 68.0407)" fill="black"/>
<path d="M90.6222 53.0795C90.1979 53.0795 89.8201 53.0066 89.4886 52.8608C89.1591 52.7131 88.8987 52.5104 88.7074 52.2528C88.518 51.9934 88.4205 51.6941 88.4148 51.3551H89.6534C89.661 51.4972 89.7074 51.6222 89.7926 51.7301C89.8797 51.8362 89.9953 51.9186 90.1392 51.9773C90.2831 52.036 90.4451 52.0653 90.625 52.0653C90.8125 52.0653 90.9782 52.0322 91.1222 51.9659C91.2661 51.8996 91.3788 51.8078 91.4602 51.6903C91.5417 51.5729 91.5824 51.4375 91.5824 51.2841C91.5824 51.1288 91.5388 50.9915 91.4517 50.8722C91.3665 50.7509 91.2434 50.6562 91.0824 50.5881C90.9233 50.5199 90.7339 50.4858 90.5142 50.4858H89.9716V49.5824H90.5142C90.6998 49.5824 90.8636 49.5502 91.0057 49.4858C91.1496 49.4214 91.2614 49.3324 91.3409 49.2188C91.4205 49.1032 91.4602 48.9688 91.4602 48.8153C91.4602 48.6695 91.4252 48.5417 91.3551 48.4318C91.2869 48.3201 91.1903 48.233 91.0653 48.1705C90.9422 48.108 90.7983 48.0767 90.6335 48.0767C90.4669 48.0767 90.3144 48.107 90.1761 48.1676C90.0379 48.2263 89.9271 48.3106 89.8438 48.4205C89.7604 48.5303 89.7159 48.6591 89.7102 48.8068H88.5312C88.5369 48.4716 88.6326 48.1761 88.8182 47.9205C89.0038 47.6648 89.2538 47.465 89.5682 47.321C89.8845 47.1752 90.2415 47.1023 90.6392 47.1023C91.0407 47.1023 91.392 47.1752 91.6932 47.321C91.9943 47.4669 92.2282 47.6638 92.3949 47.9119C92.5634 48.1581 92.6468 48.4347 92.6449 48.7415C92.6468 49.0672 92.5455 49.339 92.3409 49.5568C92.1383 49.7746 91.8741 49.9129 91.5483 49.9716V50.017C91.9763 50.072 92.3021 50.2206 92.5256 50.4631C92.7509 50.7036 92.8627 51.0047 92.8608 51.3665C92.8627 51.6979 92.767 51.9924 92.5739 52.25C92.3826 52.5076 92.1184 52.7102 91.7812 52.858C91.4441 53.0057 91.0578 53.0795 90.6222 53.0795Z" fill="black"/>
<rect x="82.3738" y="30" width="8" height="2" transform="rotate(-30 82.3738 30)" fill="black"/>
<rect x="67.7362" y="16.2703" width="8" height="2" transform="rotate(-60 67.7362 16.2703)" fill="black"/>
<rect x="48.5" y="31.5" width="3" height="20" rx="1.5" fill="black"/>
<rect x="49" y="23" width="2" height="28" rx="1" fill="black"/>
<rect x="49.5" y="15" width="1" height="35" rx="0.5" fill="black"/>
</g>
<defs>
<clipPath id="clip0_3_65">
<rect width="100" height="100" fill="white"/>
</clipPath>
</defs>
</svg>
